<svg width="32" height="32" viewBox="0 0 32 32" fill="none" xmlns="http://www.w3.org/2000/svg">
<g clip-path="url(#clip0_120_3206)">
<path d="M23.6833 31.9999C12.842 32.3666 -6.68866 12.9933 2.37933 2.48926L3.91266 1.15593C4.68882 0.405613 5.72921 -0.00890422 6.80869 0.00207524C7.88817 0.0130547 8.91991 0.448648 9.68065 1.21459C9.72177 1.25647 9.76007 1.30101 9.79532 1.34793L12.1953 4.46659C12.9247 5.23837 13.3299 6.2607 13.3275 7.32259C13.325 8.38448 12.9149 9.4049 12.182 10.1733L10.638 12.1146C11.4928 14.1907 12.7492 16.0775 14.3351 17.6668C15.9209 19.2561 17.8051 20.5166 19.8793 21.3759L21.8313 19.8226C22.6097 19.1077 23.6276 18.7104 24.6844 18.7089C25.7412 18.7074 26.7603 19.1019 27.5406 19.8146L30.6606 22.2146C30.7072 22.2497 30.7518 22.2876 30.794 22.3279C31.5634 23.1045 31.9951 24.1534 31.9951 25.2466C31.9951 26.3398 31.5634 27.3887 30.794 28.1653L29.5793 29.5653C28.8088 30.3441 27.8902 30.9608 26.8776 31.379C25.8649 31.7971 24.7788 32.0083 23.6833 31.9999ZM6.76199 2.66659C6.57038 2.66644 6.38061 2.70405 6.20354 2.77726C6.02647 2.85047 5.86555 2.95784 5.72999 3.09326L4.19532 4.42659C-3.33267 13.4773 19.7033 35.2306 27.6273 27.7439L28.8433 26.3426C28.9878 26.2139 29.1055 26.058 29.1895 25.8836C29.2735 25.7093 29.3222 25.5201 29.3327 25.3269C29.3432 25.1336 29.3154 24.9402 29.2509 24.7578C29.1863 24.5754 29.0863 24.4075 28.9566 24.2639L25.854 21.8813C25.8064 21.8463 25.7618 21.8075 25.7206 21.7653C25.4424 21.5002 25.0729 21.3523 24.6886 21.3523C24.3044 21.3523 23.9348 21.5002 23.6566 21.7653C23.6212 21.8011 23.5838 21.8349 23.5446 21.8666L20.934 23.9466C20.7527 24.0909 20.5371 24.1854 20.3082 24.2209C20.0793 24.2565 19.8451 24.2318 19.6286 24.1493C16.9408 23.148 14.4996 21.5806 12.4704 19.5535C10.4412 17.5264 8.87136 15.0867 7.86732 12.3999C7.77843 12.1804 7.74961 11.9412 7.78383 11.7069C7.81804 11.4725 7.91405 11.2515 8.06199 11.0666L10.134 8.45859C10.1648 8.41909 10.1982 8.38167 10.234 8.34659C10.5063 8.07191 10.6592 7.70075 10.6592 7.31393C10.6592 6.9271 10.5063 6.55595 10.234 6.28126C10.1924 6.23979 10.1541 6.19522 10.1193 6.14793L7.74199 3.04926C7.47336 2.80655 7.12402 2.67252 6.76199 2.67326V2.66659ZM30.086 16.7679C36.7393 6.97459 25.0193 -4.73341 15.2366 1.91859C15.0891 2.01709 14.9627 2.14403 14.8649 2.29199C14.767 2.43994 14.6997 2.60594 14.6668 2.78024C14.6339 2.95455 14.6361 3.13367 14.6733 3.30711C14.7105 3.48055 14.782 3.64482 14.8834 3.79031C14.9849 3.9358 15.1144 4.05957 15.2643 4.15438C15.4143 4.24919 15.5816 4.31313 15.7565 4.34246C15.9315 4.3718 16.1105 4.36592 16.2832 4.32519C16.4558 4.28446 16.6186 4.20969 16.762 4.10526C24.0606 -0.906741 32.9086 7.95059 27.8993 15.2439C27.7926 15.3872 27.7158 15.5504 27.6734 15.7239C27.631 15.8975 27.6239 16.0777 27.6526 16.2541C27.6812 16.4304 27.745 16.5991 27.8401 16.7503C27.9352 16.9015 28.0597 17.032 28.2063 17.1342C28.3528 17.2363 28.5184 17.308 28.6932 17.3449C28.8679 17.3818 29.0483 17.3832 29.2237 17.349C29.399 17.3149 29.5657 17.2458 29.7138 17.146C29.8619 17.0462 29.9885 16.9176 30.086 16.7679ZM24.942 14.2813C25.1919 14.0312 25.3323 13.6921 25.3323 13.3386C25.3323 12.985 25.1919 12.646 24.942 12.3959L22.6673 10.1199V6.66659C22.6673 6.31297 22.5268 5.97383 22.2768 5.72378C22.0267 5.47374 21.6876 5.33326 21.334 5.33326C20.9803 5.33326 20.6412 5.47374 20.3912 5.72378C20.1411 5.97383 20.0006 6.31297 20.0006 6.66659V10.6666C20.0007 11.0202 20.1412 11.3593 20.3913 11.6093L23.058 14.2759C23.308 14.5259 23.6471 14.6663 24.0006 14.6663C24.3542 14.6663 24.6933 14.5259 24.9433 14.2759L24.942 14.2813Z" fill="#6B6B6B"/>
</g>
<defs>
<clipPath id="clip0_120_3206">
<rect width="32" height="32" fill="white"/>
</clipPath>
</defs>
</svg>
