<svg width="0" height="0" class="hidden">
  <symbol fill="none" xmlns="http://www.w3.org/2000/svg" viewBox="0 0 16 16" id="arrow-down">
    <path d="M12.473 5.47332C12.4111 5.41084 12.3373 5.36124 12.2561 5.32739C12.1749 5.29355 12.0877 5.27612 11.9997 5.27612C11.9117 5.27612 11.8246 5.29355 11.7433 5.32739C11.6621 5.36124 11.5884 5.41084 11.5264 5.47332L8.47305 8.52665C8.41107 8.58913 8.33734 8.63873 8.2561 8.67258C8.17486 8.70642 8.08772 8.72385 7.99971 8.72385C7.91171 8.72385 7.82457 8.70642 7.74333 8.67258C7.66209 8.63873 7.58836 8.58913 7.52638 8.52665L4.47305 5.47332C4.41107 5.41084 4.33734 5.36124 4.2561 5.32739C4.17486 5.29355 4.08772 5.27612 3.99971 5.27612C3.91171 5.27612 3.82457 5.29355 3.74333 5.32739C3.66209 5.36124 3.58836 5.41084 3.52638 5.47332C3.40221 5.59823 3.33252 5.7672 3.33252 5.94332C3.33252 6.11944 3.40221 6.28841 3.52638 6.41332L6.58638 9.47331C6.96138 9.84785 7.46971 10.0582 7.99971 10.0582C8.52972 10.0582 9.03805 9.84785 9.41305 9.47331L12.473 6.41332C12.5972 6.28841 12.6669 6.11944 12.6669 5.94332C12.6669 5.7672 12.5972 5.59823 12.473 5.47332Z" fill="currentColor"></path>
  </symbol>
  <symbol fill="none" xmlns="http://www.w3.org/2000/svg" viewBox="0 0 20 20" id="arrow-right">
    <path d="M11.9124 5L13.0874 6.175L9.27074 10L13.0874 13.825L11.9124 15L6.9124 10L11.9124 5Z" fill="currentColor"></path>
  </symbol>
  <symbol fill="none" xmlns="http://www.w3.org/2000/svg" viewBox="0 0 24 24" id="caret-down">
    <path d="M6.40987 9H17.5899C17.7876 9.00083 17.9807 9.06028 18.1447 9.17085C18.3087 9.28141 18.4362 9.43811 18.5111 9.62115C18.5861 9.80418 18.605 10.0053 18.5656 10.1991C18.5263 10.3929 18.4303 10.5707 18.2899 10.71L12.7099 16.29C12.6169 16.3837 12.5063 16.4581 12.3844 16.5089C12.2626 16.5596 12.1319 16.5858 11.9999 16.5858C11.8679 16.5858 11.7372 16.5596 11.6153 16.5089C11.4934 16.4581 11.3828 16.3837 11.2899 16.29L5.70987 10.71C5.56945 10.5707 5.47348 10.3929 5.43409 10.1991C5.39471 10.0053 5.41368 9.80418 5.4886 9.62115C5.56353 9.43811 5.69104 9.28141 5.85503 9.17085C6.01901 9.06028 6.2121 9.00083 6.40987 9Z" fill="currentColor"></path>
  </symbol>
  <symbol fill="none" xmlns="http://www.w3.org/2000/svg" viewBox="0 0 12 12" id="check">
    <path d="M11.7682 2.14023L4.39049 10.9934L0.282959 6.76855L1.71695 5.3744L4.27608 8.00665L10.2317 0.859863L11.7682 2.14023Z" fill="currentColor"></path>
  </symbol>
  <symbol fill="none" xmlns="http://www.w3.org/2000/svg" viewBox="0 0 24 24" id="globe">
    <g clip-path="url(#clip0_118_1498)">
      <path d="M12 0C9.62663 0 7.30655 0.703788 5.33316 2.02236C3.35977 3.34094 1.8217 5.21509 0.913451 7.4078C0.00519943 9.60051 -0.232441 12.0133 0.230582 14.3411C0.693605 16.6689 1.83649 18.8071 3.51472 20.4853C5.19295 22.1635 7.33115 23.3064 9.65892 23.7694C11.9867 24.2324 14.3995 23.9948 16.5922 23.0866C18.7849 22.1783 20.6591 20.6402 21.9776 18.6668C23.2962 16.6935 24 14.3734 24 12C23.9966 8.81846 22.7312 5.76821 20.4815 3.51852C18.2318 1.26883 15.1815 0.00344108 12 0V0ZM20.647 7H17.426C16.705 5.32899 15.7556 3.76609 14.605 2.356C17.1515 3.04893 19.3223 4.71747 20.647 7ZM16.5 12C16.4918 13.0181 16.3314 14.0293 16.024 15H7.97601C7.66866 14.0293 7.50821 13.0181 7.50001 12C7.50821 10.9819 7.66866 9.97068 7.97601 9H16.024C16.3314 9.97068 16.4918 10.9819 16.5 12ZM8.77801 17H15.222C14.3732 18.6757 13.2882 20.2208 12 21.588C10.7114 20.2212 9.62625 18.676 8.77801 17ZM8.77801 7C9.62677 5.32427 10.7119 3.77916 12 2.412C13.2886 3.77877 14.3738 5.32396 15.222 7H8.77801ZM9.40001 2.356C8.24767 3.76578 7.29659 5.3287 6.57401 7H3.35301C4.67886 4.71643 6.85166 3.04775 9.40001 2.356ZM2.46101 9H5.90001C5.64076 9.97915 5.50636 10.9871 5.50001 12C5.50636 13.0129 5.64076 14.0209 5.90001 15H2.46101C1.84635 13.0472 1.84635 10.9528 2.46101 9ZM3.35301 17H6.57401C7.29659 18.6713 8.24767 20.2342 9.40001 21.644C6.85166 20.9522 4.67886 19.2836 3.35301 17ZM14.605 21.644C15.7556 20.2339 16.705 18.671 17.426 17H20.647C19.3223 19.2825 17.1515 20.9511 14.605 21.644ZM21.539 15H18.1C18.3592 14.0209 18.4936 13.0129 18.5 12C18.4936 10.9871 18.3592 9.97915 18.1 9H21.537C22.1517 10.9528 22.1517 13.0472 21.537 15H21.539Z" fill="currentColor"></path>
    </g>
    <defs>
      <clipPath id="clip0_118_1498">
        <rect width="24" height="24" fill="white"></rect>
      </clipPath>
    </defs>
  </symbol>
  <symbol fill="none" xmlns="http://www.w3.org/2000/svg" viewBox="0 0 30 28" id="star">
    <path d="M14.5245 0.463523C14.6741 0.00286782 15.3259 0.00286996 15.4755 0.463525L18.48 9.71024C18.5469 9.91625 18.7389 10.0557 18.9555 10.0557H28.6781C29.1624 10.0557 29.3638 10.6755 28.972 10.9602L21.1062 16.675C20.931 16.8023 20.8577 17.028 20.9246 17.234L23.929 26.4807C24.0787 26.9414 23.5515 27.3245 23.1596 27.0398L15.2939 21.325C15.1186 21.1977 14.8814 21.1977 14.7061 21.325L6.84038 27.0398C6.44853 27.3245 5.92129 26.9414 6.07096 26.4807L9.0754 17.234C9.14234 17.028 9.06901 16.8023 8.89377 16.675L1.02804 10.9602C0.636187 10.6755 0.837576 10.0557 1.32194 10.0557H11.0445C11.2611 10.0557 11.4531 9.91625 11.52 9.71024L14.5245 0.463523Z" fill="currentColor"></path>
  </symbol>
  <symbol fill="none" xmlns="http://www.w3.org/2000/svg" viewBox="0 0 24 24" id="chevron-left">
    <path fill-rule="evenodd" clip-rule="evenodd" d="M14.6446 5.36644C14.1708 4.87785 13.4055 4.87785 12.9317 5.36644L7.35535 11.1168C6.88155 11.6054 6.88155 12.3946 7.35535 12.8832L12.9317 18.6336C13.4055 19.1221 14.1708 19.1221 14.6446 18.6336C15.1185 18.145 15.1185 17.3557 14.6446 16.8671L9.9309 11.9937L14.6446 7.13289C15.1185 6.6443 15.1063 5.84251 14.6446 5.36644Z" fill="currentColor"></path>
  </symbol>
  <symbol fill="none" xmlns="http://www.w3.org/2000/svg" viewBox="0 0 24 24" id="chevron-right">
    <path fill-rule="evenodd" clip-rule="evenodd" d="M8.35535 5.36831C7.88155 5.85729 7.88155 6.64716 8.35535 7.13614L13.0691 12.0008L8.35535 16.8654C7.88155 17.3544 7.88155 18.1443 8.35535 18.6333C8.82916 19.1222 9.59453 19.1222 10.0683 18.6333L15.6446 12.8784C16.1185 12.3895 16.1185 11.5996 15.6446 11.1106L10.0683 5.35577C9.60668 4.87934 8.82916 4.87934 8.35535 5.36831Z" fill="currentColor"></path>
  </symbol>
  <symbol fill="none" xmlns="http://www.w3.org/2000/svg" viewBox="0 0 24 24" id="search">
    <path d="M15.7549 14.255H14.9649L14.6849 13.985C15.6649 12.845 16.2549 11.365 16.2549 9.755C16.2549 6.165 13.3449 3.255 9.75488 3.255C6.16488 3.255 3.25488 6.165 3.25488 9.755C3.25488 13.345 6.16488 16.255 9.75488 16.255C11.3649 16.255 12.8449 15.665 13.9849 14.685L14.2549 14.965V15.755L19.2549 20.745L20.7449 19.255L15.7549 14.255ZM9.75488 14.255C7.26488 14.255 5.25488 12.245 5.25488 9.755C5.25488 7.26501 7.26488 5.255 9.75488 5.255C12.2449 5.255 14.2549 7.26501 14.2549 9.755C14.2549 12.245 12.2449 14.255 9.75488 14.255Z" fill="currentColor"></path>
  </symbol>
  <symbol fill="none" xmlns="http://www.w3.org/2000/svg" viewBox="0 0 24 24" id="youtube">
    <g clip-path="url(#clip0_152_271)">
      <path d="M13.9236 11.7996L11.2284 10.542C10.9932 10.4328 10.8 10.5552 10.8 10.8156V13.1844C10.8 13.4448 10.9932 13.5672 11.2284 13.458L13.9224 12.2004C14.1588 12.09 14.1588 11.91 13.9236 11.7996ZM12 0.47998C5.63758 0.47998 0.47998 5.63758 0.47998 12C0.47998 18.3624 5.63758 23.52 12 23.52C18.3624 23.52 23.52 18.3624 23.52 12C23.52 5.63758 18.3624 0.47998 12 0.47998ZM12 16.68C6.10318 16.68 5.99998 16.1484 5.99998 12C5.99998 7.85158 6.10318 7.31998 12 7.31998C17.8968 7.31998 18 7.85158 18 12C18 16.1484 17.8968 16.68 12 16.68Z" fill="currentColor"></path>
    </g>
    <defs>
      <clipPath id="clip0_152_271">
        <rect width="24" height="24" fill="white"></rect>
      </clipPath>
    </defs>
  </symbol>
  <symbol fill="none" xmlns="http://www.w3.org/2000/svg" viewBox="0 0 24 24" id="twitter">
    <g clip-path="url(#clip0_152_269)">
      <path d="M12 0C18.6343 0 24 5.36571 24 12C24 18.6343 18.6343 24 12 24C5.36571 24 0 18.6343 0 12C0 5.36571 5.36571 0 12 0ZM9.80571 18.3257C15.12 18.3257 18.0343 13.92 18.0343 10.0971V9.72C18.6 9.30857 19.0971 8.79429 19.4743 8.21143C18.96 8.43429 18.3943 8.58857 17.8114 8.67429C18.4114 8.31429 18.8743 7.74857 19.08 7.08C18.5143 7.40571 17.8971 7.64571 17.2457 7.78286C16.7143 7.21714 15.96 6.87429 15.1371 6.87429C13.5429 6.87429 12.24 8.17714 12.24 9.77143C12.24 9.99429 12.2571 10.2171 12.3257 10.4229C9.92571 10.3029 7.78286 9.15429 6.36 7.40571C6.12 7.83429 5.96571 8.33143 5.96571 8.86286C5.96571 9.85714 6.48 10.7486 7.25143 11.2629C6.77143 11.2629 6.32571 11.1257 5.94857 10.9029V10.9371C5.94857 12.3429 6.94286 13.5086 8.26286 13.7829C8.02286 13.8514 7.76571 13.8857 7.50857 13.8857C7.32 13.8857 7.14857 13.8686 6.96 13.8343C7.32 14.9829 8.4 15.8229 9.65143 15.84C8.65714 16.6114 7.40571 17.0743 6.05143 17.0743C5.81143 17.0743 5.58857 17.0743 5.36571 17.04C6.63429 17.8629 8.16 18.3429 9.78857 18.3429" fill="currentColor"></path>
    </g>
    <defs>
      <clipPath id="clip0_152_269">
        <rect width="24" height="24" fill="white"></rect>
      </clipPath>
    </defs>
  </symbol>
  <symbol fill="none" xmlns="http://www.w3.org/2000/svg" viewBox="0 0 24 24" id="linkedin">
    <g clip-path="url(#clip0_152_267)">
      <path d="M12 0.47998C5.63758 0.47998 0.47998 5.63758 0.47998 12C0.47998 18.3624 5.63758 23.52 12 23.52C18.3624 23.52 23.52 18.3624 23.52 12C23.52 5.63758 18.3624 0.47998 12 0.47998ZM9.17998 16.7748H6.84718V9.26758H9.17998V16.7748ZM7.99918 8.34598C7.26238 8.34598 6.78598 7.82398 6.78598 7.17838C6.78598 6.51958 7.27678 6.01318 8.02918 6.01318C8.78158 6.01318 9.24238 6.51958 9.25678 7.17838C9.25678 7.82398 8.78158 8.34598 7.99918 8.34598ZM17.7 16.7748H15.3672V12.6144C15.3672 11.646 15.0288 10.9884 14.1852 10.9884C13.5408 10.9884 13.158 11.4336 12.9888 11.862C12.9264 12.0144 12.9108 12.2304 12.9108 12.4452V16.7736H10.5768V11.6616C10.5768 10.7244 10.5468 9.94078 10.5156 9.26638H12.5424L12.6492 10.3092H12.696C13.0032 9.81958 13.7556 9.09718 15.0144 9.09718C16.5492 9.09718 17.7 10.1256 17.7 12.336V16.7748Z" fill="currentColor"></path>
    </g>
    <defs>
      <clipPath id="clip0_152_267">
        <rect width="24" height="24" fill="white"></rect>
      </clipPath>
    </defs>
  </symbol>
  <symbol fill="none" xmlns="http://www.w3.org/2000/svg" viewBox="0 0 24 24" id="facebook">
    <g clip-path="url(#clip0_152_264)">
      <path d="M24 12C24 5.37262 18.6274 0 12 0C5.37262 0 0 5.37262 0 12C0 17.9895 4.38825 22.954 10.125 23.8542V15.4688H7.07812V12H10.125V9.35625C10.125 6.34875 11.9166 4.6875 14.6576 4.6875C15.9705 4.6875 17.3438 4.92188 17.3438 4.92188V7.875H15.8306C14.3399 7.875 13.875 8.80003 13.875 9.74906V12H17.2031L16.6711 15.4688H13.875V23.8542C19.6117 22.954 24 17.9896 24 12Z" fill="currentColor"></path>
      <path d="M16.6711 15.4688L17.2031 12H13.875V9.74906C13.875 8.79994 14.3399 7.875 15.8306 7.875H17.3438V4.92188C17.3438 4.92188 15.9705 4.6875 14.6575 4.6875C11.9166 4.6875 10.125 6.34875 10.125 9.35625V12H7.07812V15.4688H10.125V23.8542C10.7453 23.9514 11.3722 24.0002 12 24C12.6278 24.0002 13.2547 23.9514 13.875 23.8542V15.4688H16.6711Z" fill="white"></path>
    </g>
    <defs>
      <clipPath id="clip0_152_264">
        <rect width="24" height="24" fill="white"></rect>
      </clipPath>
    </defs>
  </symbol>
  <symbol fill="none" xmlns="http://www.w3.org/2000/svg" viewBox="0 0 24 24" id="instagram">
    <g clip-path="url(#clip0_152_262)">
      <path d="M15.6 12C15.6 12.9548 15.2207 13.8704 14.5456 14.5456C13.8704 15.2207 12.9548 15.6 12 15.6C11.0452 15.6 10.1295 15.2207 9.45439 14.5456C8.77926 13.8704 8.39998 12.9548 8.39998 12C8.39998 11.7948 8.42158 11.5944 8.45878 11.4H7.19998V16.1964C7.19998 16.53 7.46998 16.8 7.80358 16.8H16.1976C16.3575 16.7997 16.5107 16.7359 16.6236 16.6228C16.7365 16.5096 16.8 16.3563 16.8 16.1964V11.4H15.5412C15.5784 11.5944 15.6 11.7948 15.6 12ZM12 14.4C12.3152 14.3999 12.6274 14.3377 12.9186 14.217C13.2098 14.0963 13.4744 13.9194 13.6973 13.6964C13.9201 13.4735 14.0969 13.2088 14.2175 12.9175C14.338 12.6262 14.4001 12.314 14.4 11.9988C14.3999 11.6835 14.3377 11.3714 14.217 11.0802C14.0963 10.7889 13.9194 10.5243 13.6964 10.3015C13.4735 10.0786 13.2088 9.90185 12.9175 9.78128C12.6262 9.66072 12.314 9.5987 11.9988 9.59878C11.3621 9.59894 10.7516 9.85201 10.3015 10.3023C9.85139 10.7526 9.59862 11.3633 9.59878 12C9.59894 12.6367 9.85201 13.2472 10.3023 13.6973C10.7526 14.1474 11.3633 14.4001 12 14.4ZM14.88 9.47998H16.3188C16.4144 9.47998 16.5061 9.44209 16.5738 9.37461C16.6415 9.30713 16.6797 9.21557 16.68 9.11998V7.68118C16.68 7.58538 16.6419 7.49351 16.5742 7.42577C16.5064 7.35803 16.4146 7.31998 16.3188 7.31998H14.88C14.7842 7.31998 14.6923 7.35803 14.6246 7.42577C14.5568 7.49351 14.5188 7.58538 14.5188 7.68118V9.11998C14.52 9.31798 14.682 9.47998 14.88 9.47998ZM12 0.47998C8.94469 0.47998 6.01453 1.69369 3.85411 3.85411C1.69369 6.01453 0.47998 8.94469 0.47998 12C0.47998 15.0553 1.69369 17.9854 3.85411 20.1458C6.01453 22.3063 8.94469 23.52 12 23.52C13.5128 23.52 15.0108 23.222 16.4085 22.6431C17.8062 22.0641 19.0761 21.2156 20.1458 20.1458C21.2156 19.0761 22.0641 17.8062 22.6431 16.4085C23.222 15.0108 23.52 13.5128 23.52 12C23.52 10.4872 23.222 8.98914 22.6431 7.59147C22.0641 6.1938 21.2156 4.92384 20.1458 3.85411C19.0761 2.78438 17.8062 1.93582 16.4085 1.35689C15.0108 0.777954 13.5128 0.47998 12 0.47998ZM18 16.6668C18 17.4 17.4 18 16.6668 18H7.33318C6.59998 18 5.99998 17.4 5.99998 16.6668V7.33318C5.99998 6.59998 6.59998 5.99998 7.33318 5.99998H16.6668C17.4 5.99998 18 6.59998 18 7.33318V16.6668Z" fill="currentColor"></path>
    </g>
    <defs>
      <clipPath id="clip0_152_262">
        <rect width="24" height="24" fill="white"></rect>
      </clipPath>
    </defs>
  </symbol>
  <symbol fill="none" xmlns="http://www.w3.org/2000/svg" viewBox="0 0 32 32" id="call-history">
    <g clip-path="url(#clip0_120_3206)">
      <path d="M23.6833 31.9999C12.842 32.3666 -6.68866 12.9933 2.37933 2.48926L3.91266 1.15593C4.68882 0.405613 5.72921 -0.00890422 6.80869 0.00207524C7.88817 0.0130547 8.91991 0.448648 9.68065 1.21459C9.72177 1.25647 9.76007 1.30101 9.79532 1.34793L12.1953 4.46659C12.9247 5.23837 13.3299 6.2607 13.3275 7.32259C13.325 8.38448 12.9149 9.4049 12.182 10.1733L10.638 12.1146C11.4928 14.1907 12.7492 16.0775 14.3351 17.6668C15.9209 19.2561 17.8051 20.5166 19.8793 21.3759L21.8313 19.8226C22.6097 19.1077 23.6276 18.7104 24.6844 18.7089C25.7412 18.7074 26.7603 19.1019 27.5406 19.8146L30.6606 22.2146C30.7072 22.2497 30.7518 22.2876 30.794 22.3279C31.5634 23.1045 31.9951 24.1534 31.9951 25.2466C31.9951 26.3398 31.5634 27.3887 30.794 28.1653L29.5793 29.5653C28.8088 30.3441 27.8902 30.9608 26.8776 31.379C25.8649 31.7971 24.7788 32.0083 23.6833 31.9999ZM6.76199 2.66659C6.57038 2.66644 6.38061 2.70405 6.20354 2.77726C6.02647 2.85047 5.86555 2.95784 5.72999 3.09326L4.19532 4.42659C-3.33267 13.4773 19.7033 35.2306 27.6273 27.7439L28.8433 26.3426C28.9878 26.2139 29.1055 26.058 29.1895 25.8836C29.2735 25.7093 29.3222 25.5201 29.3327 25.3269C29.3432 25.1336 29.3154 24.9402 29.2509 24.7578C29.1863 24.5754 29.0863 24.4075 28.9566 24.2639L25.854 21.8813C25.8064 21.8463 25.7618 21.8075 25.7206 21.7653C25.4424 21.5002 25.0729 21.3523 24.6886 21.3523C24.3044 21.3523 23.9348 21.5002 23.6566 21.7653C23.6212 21.8011 23.5838 21.8349 23.5446 21.8666L20.934 23.9466C20.7527 24.0909 20.5371 24.1854 20.3082 24.2209C20.0793 24.2565 19.8451 24.2318 19.6286 24.1493C16.9408 23.148 14.4996 21.5806 12.4704 19.5535C10.4412 17.5264 8.87136 15.0867 7.86732 12.3999C7.77843 12.1804 7.74961 11.9412 7.78383 11.7069C7.81804 11.4725 7.91405 11.2515 8.06199 11.0666L10.134 8.45859C10.1648 8.41909 10.1982 8.38167 10.234 8.34659C10.5063 8.07191 10.6592 7.70075 10.6592 7.31393C10.6592 6.9271 10.5063 6.55595 10.234 6.28126C10.1924 6.23979 10.1541 6.19522 10.1193 6.14793L7.74199 3.04926C7.47336 2.80655 7.12402 2.67252 6.76199 2.67326V2.66659ZM30.086 16.7679C36.7393 6.97459 25.0193 -4.73341 15.2366 1.91859C15.0891 2.01709 14.9627 2.14403 14.8649 2.29199C14.767 2.43994 14.6997 2.60594 14.6668 2.78024C14.6339 2.95455 14.6361 3.13367 14.6733 3.30711C14.7105 3.48055 14.782 3.64482 14.8834 3.79031C14.9849 3.9358 15.1144 4.05957 15.2643 4.15438C15.4143 4.24919 15.5816 4.31313 15.7565 4.34246C15.9315 4.3718 16.1105 4.36592 16.2832 4.32519C16.4558 4.28446 16.6186 4.20969 16.762 4.10526C24.0606 -0.906741 32.9086 7.95059 27.8993 15.2439C27.7926 15.3872 27.7158 15.5504 27.6734 15.7239C27.631 15.8975 27.6239 16.0777 27.6526 16.2541C27.6812 16.4304 27.745 16.5991 27.8401 16.7503C27.9352 16.9015 28.0597 17.032 28.2063 17.1342C28.3528 17.2363 28.5184 17.308 28.6932 17.3449C28.8679 17.3818 29.0483 17.3832 29.2237 17.349C29.399 17.3149 29.5657 17.2458 29.7138 17.146C29.8619 17.0462 29.9885 16.9176 30.086 16.7679ZM24.942 14.2813C25.1919 14.0312 25.3323 13.6921 25.3323 13.3386C25.3323 12.985 25.1919 12.646 24.942 12.3959L22.6673 10.1199V6.66659C22.6673 6.31297 22.5268 5.97383 22.2768 5.72378C22.0267 5.47374 21.6876 5.33326 21.334 5.33326C20.9803 5.33326 20.6412 5.47374 20.3912 5.72378C20.1411 5.97383 20.0006 6.31297 20.0006 6.66659V10.6666C20.0007 11.0202 20.1412 11.3593 20.3913 11.6093L23.058 14.2759C23.308 14.5259 23.6471 14.6663 24.0006 14.6663C24.3542 14.6663 24.6933 14.5259 24.9433 14.2759L24.942 14.2813Z" fill="currentColor"></path>
    </g>
    <defs>
      <clipPath id="clip0_120_3206">
        <rect width="32" height="32" fill="white"></rect>
      </clipPath>
    </defs>
  </symbol>
  <symbol xmlns="http://www.w3.org/2000/svg" fill="none" stroke-width="2" stroke="currentColor" viewBox="0 0 24 24" id="eye-slash">
    <path stroke-linecap="round" stroke-linejoin="round" d="M3.98 8.223A10.477 10.477 0 0 0 1.934 12C3.226 16.338 7.244 19.5 12 19.5c.993 0 1.953-.138 2.863-.395M6.228 6.228A10.451 10.451 0 0 1 12 4.5c4.756 0 8.773 3.162 10.065 7.498a10.522 10.522 0 0 1-4.293 5.774M6.228 6.228 3 3m3.228 3.228 3.65 3.65m7.894 7.894L21 21m-3.228-3.228-3.65-3.65m0 0a3 3 0 1 0-4.243-4.243m4.242 4.242L9.88 9.88"></path>
  </symbol>
  <symbol xmlns="http://www.w3.org/2000/svg" fill="none" stroke-width="2" stroke="currentColor" viewBox="0 0 24 24" id="eye">
    <path stroke-linecap="round" stroke-linejoin="round" d="M2.036 12.322a1.012 1.012 0 0 1 0-.639C3.423 7.51 7.36 4.5 12 4.5c4.638 0 8.573 3.007 9.963 7.178.07.207.07.431 0 .639C20.577 16.49 16.64 19.5 12 19.5c-4.638 0-8.573-3.007-9.963-7.178Z"></path>
    <path stroke-linecap="round" stroke-linejoin="round" d="M15 12a3 3 0 1 1-6 0 3 3 0 0 1 6 0Z"></path>
  </symbol>
  <symbol fill="none" xmlns="http://www.w3.org/2000/svg" viewBox="0 0 24 24" id="card">
    <path d="M1.5 17.625C1.5 18.3212 1.77656 18.9889 2.26884 19.4812C2.76113 19.9734 3.42881 20.25 4.125 20.25H19.875C20.5712 20.25 21.2389 19.9734 21.7312 19.4812C22.2234 18.9889 22.5 18.3212 22.5 17.625V10.4062H1.5V17.625ZM4.59375 14.0625C4.59375 13.6895 4.74191 13.3319 5.00563 13.0681C5.26935 12.8044 5.62704 12.6562 6 12.6562H8.25C8.62296 12.6562 8.98065 12.8044 9.24437 13.0681C9.50809 13.3319 9.65625 13.6895 9.65625 14.0625V15C9.65625 15.373 9.50809 15.7306 9.24437 15.9944C8.98065 16.2581 8.62296 16.4062 8.25 16.4062H6C5.62704 16.4062 5.26935 16.2581 5.00563 15.9944C4.74191 15.7306 4.59375 15.373 4.59375 15V14.0625ZM19.875 3.75H4.125C3.42881 3.75 2.76113 4.02656 2.26884 4.51884C1.77656 5.01113 1.5 5.67881 1.5 6.375V7.59375H22.5V6.375C22.5 5.67881 22.2234 5.01113 21.7312 4.51884C21.2389 4.02656 20.5712 3.75 19.875 3.75Z" fill="currentColor"></path>
  </symbol>
  <symbol fill="none" xmlns="http://www.w3.org/2000/svg" viewBox="0 0 24 24" id="list">
    <path d="M21 8H3V4H21V8ZM21 10H3V14H21V10ZM21 16H3V20H21V16Z" fill="currentColor"></path>
  </symbol>
  <symbol fill="none" xmlns="http://www.w3.org/2000/svg" viewBox="0 0 24 24" id="grid">
    <path d="M11 3H3V11H11V3Z" fill="currentColor"></path>
    <path d="M11 13H3V21H11V13Z" fill="currentColor"></path>
    <path d="M21 3H13V11H21V3Z" fill="currentColor"></path>
    <path d="M21 13H13V21H21V13Z" fill="currentColor"></path>
  </symbol>
  <symbol fill="none" xmlns="http://www.w3.org/2000/svg" viewBox="0 0 20 20" id="clear">
    <path d="M15.8332 5.34166L14.6582 4.16666L9.99984 8.82499L5.3415 4.16666L4.1665 5.34166L8.82484 9.99999L4.1665 14.6583L5.3415 15.8333L9.99984 11.175L14.6582 15.8333L15.8332 14.6583L11.1748 9.99999L15.8332 5.34166Z" fill="currentColor"></path>
  </symbol>
  <symbol fill="none" xmlns="http://www.w3.org/2000/svg" viewBox="0 0 24 24" id="diploma">
    <g clip-path="url(#clip0_54_4154)">
      <path d="M11 12C11.2652 12 11.5196 12.1054 11.7071 12.2929C11.8946 12.4804 12 12.7348 12 13C12 13.2652 11.8946 13.5196 11.7071 13.7071C11.5196 13.8946 11.2652 14 11 14H8C7.73478 14 7.48043 13.8946 7.29289 13.7071C7.10536 13.5196 7 13.2652 7 13C7 12.7348 7.10536 12.4804 7.29289 12.2929C7.48043 12.1054 7.73478 12 8 12H11ZM17 9C17 8.73478 16.8946 8.48043 16.7071 8.29289C16.5196 8.10536 16.2652 8 16 8H8C7.73478 8 7.48043 8.10536 7.29289 8.29289C7.10536 8.48043 7 8.73478 7 9C7 9.26522 7.10536 9.51957 7.29289 9.70711C7.48043 9.89464 7.73478 10 8 10H16C16.2652 10 16.5196 9.89464 16.7071 9.70711C16.8946 9.51957 17 9.26522 17 9ZM8 6H16C16.2652 6 16.5196 5.89464 16.7071 5.70711C16.8946 5.51957 17 5.26522 17 5C17 4.73478 16.8946 4.48043 16.7071 4.29289C16.5196 4.10536 16.2652 4 16 4H8C7.73478 4 7.48043 4.10536 7.29289 4.29289C7.10536 4.48043 7 4.73478 7 5C7 5.26522 7.10536 5.51957 7.29289 5.70711C7.48043 5.89464 7.73478 6 8 6ZM20 19.444V23.277C20.0001 23.4197 19.9578 23.5591 19.8786 23.6777C19.7994 23.7964 19.6868 23.8888 19.555 23.9434C19.4232 23.998 19.2781 24.0123 19.1382 23.9845C18.9983 23.9566 18.8698 23.8879 18.769 23.787L18 23.019L17.231 23.787C17.1302 23.8879 17.0017 23.9566 16.8618 23.9845C16.7219 24.0123 16.5768 23.998 16.445 23.9434C16.3132 23.8888 16.2006 23.7964 16.1214 23.6777C16.0422 23.5591 15.9999 23.4197 16 23.277V19.444C15.2373 19.0058 14.641 18.3277 14.3038 17.5154C13.9666 16.703 13.9076 15.8019 14.1358 14.9525C14.364 14.103 14.8667 13.3529 15.5656 12.8189C16.2646 12.2849 17.1204 11.997 18 12C18.338 12.0042 18.6741 12.0519 19 12.142V5C19 4.20435 18.6839 3.44129 18.1213 2.87868C17.5587 2.31607 16.7956 2 16 2H8C7.20435 2 6.44129 2.31607 5.87868 2.87868C5.31607 3.44129 5 4.20435 5 5V17C5 17.7956 5.31607 18.5587 5.87868 19.1213C6.44129 19.6839 7.20435 20 8 20H13C13.2652 20 13.5196 20.1054 13.7071 20.2929C13.8946 20.4804 14 20.7348 14 21C14 21.2652 13.8946 21.5196 13.7071 21.7071C13.5196 21.8946 13.2652 22 13 22H8C6.67441 21.9984 5.40356 21.4711 4.46622 20.5338C3.52888 19.5964 3.00159 18.3256 3 17V5C3.00159 3.67441 3.52888 2.40356 4.46622 1.46622C5.40356 0.528882 6.67441 0.00158786 8 0L16 0C17.3256 0.00158786 18.5964 0.528882 19.5338 1.46622C20.4711 2.40356 20.9984 3.67441 21 5V13.382C21.3917 13.8219 21.6801 14.3438 21.844 14.9096C22.0079 15.4753 22.0433 16.0706 21.9474 16.6518C21.8515 17.2329 21.6269 17.7853 21.2899 18.2684C20.953 18.7516 20.5122 19.1532 20 19.444ZM20 16C20 15.6044 19.8827 15.2178 19.6629 14.8889C19.4432 14.56 19.1308 14.3036 18.7654 14.1522C18.3999 14.0009 17.9978 13.9613 17.6098 14.0384C17.2219 14.1156 16.8655 14.3061 16.5858 14.5858C16.3061 14.8655 16.1156 15.2219 16.0384 15.6098C15.9613 15.9978 16.0009 16.3999 16.1522 16.7654C16.3036 17.1308 16.56 17.4432 16.8889 17.6629C17.2178 17.8827 17.6044 18 18 18C18.5304 18 19.0391 17.7893 19.4142 17.4142C19.7893 17.0391 20 16.5304 20 16Z" fill="currentColor"></path>
    </g>
    <defs>
      <clipPath id="clip0_54_4154">
        <rect width="24" height="24" fill="white"></rect>
      </clipPath>
    </defs>
  </symbol>
  <symbol fill="none" xmlns="http://www.w3.org/2000/svg" viewBox="0 0 24 24" id="email">
    <path d="M22 6C22 4.9 21.1 4 20 4H4C2.9 4 2 4.9 2 6V18C2 19.1 2.9 20 4 20H20C21.1 20 22 19.1 22 18V6ZM20 6L12 11L4 6H20ZM20 18H4V8L12 13L20 8V18Z" fill="currentColor"></path>
  </symbol>
  <symbol fill="none" xmlns="http://www.w3.org/2000/svg" viewBox="0 0 24 24" id="phone-enabled">
    <path d="M17.46 5C17.4 5.89 17.25 6.76 17.01 7.59L18.21 8.79C18.62 7.59 18.88 6.32 18.97 5H17.46ZM7.6 17.02C6.75 17.26 5.88 17.41 5 17.47V18.96C6.32 18.87 7.59 18.61 8.8 18.21L7.6 17.02ZM16.5 3H20C20.55 3 21 3.45 21 4C21 13.39 13.39 21 4 21C3.45 21 3 20.55 3 20V16.51C3 15.96 3.45 15.51 4 15.51C5.24 15.51 6.45 15.31 7.57 14.94C7.67 14.9 7.78 14.89 7.88 14.89C8.14 14.89 8.39 14.99 8.59 15.18L10.79 17.38C13.62 15.93 15.94 13.62 17.38 10.79L15.18 8.59C14.9 8.31 14.82 7.92 14.93 7.57C15.3 6.45 15.5 5.25 15.5 4C15.5 3.45 15.95 3 16.5 3Z" fill="currentColor"></path>
  </symbol>
  <symbol xmlns="http://www.w3.org/2000/svg" fill="none" stroke-width="2" stroke="currentColor" viewBox="0 0 24 24" id="arrow-double-down">
    <path stroke-linecap="round" stroke-linejoin="round" d="m4.5 5.25 7.5 7.5 7.5-7.5m-15 6 7.5 7.5 7.5-7.5"></path>
  </symbol>
</svg>
