<svg width="30" height="28" viewBox="0 0 30 28" fill="none" xmlns="http://www.w3.org/2000/svg">
<path d="M14.5245 0.463523C14.6741 0.00286782 15.3259 0.00286996 15.4755 0.463525L18.48 9.71024C18.5469 9.91625 18.7389 10.0557 18.9555 10.0557H28.6781C29.1624 10.0557 29.3638 10.6755 28.972 10.9602L21.1062 16.675C20.931 16.8023 20.8577 17.028 20.9246 17.234L23.929 26.4807C24.0787 26.9414 23.5515 27.3245 23.1596 27.0398L15.2939 21.325C15.1186 21.1977 14.8814 21.1977 14.7061 21.325L6.84038 27.0398C6.44853 27.3245 5.92129 26.9414 6.07096 26.4807L9.0754 17.234C9.14234 17.028 9.06901 16.8023 8.89377 16.675L1.02804 10.9602C0.636187 10.6755 0.837576 10.0557 1.32194 10.0557H11.0445C11.2611 10.0557 11.4531 9.91625 11.52 9.71024L14.5245 0.463523Z" fill="#FECE25"/>
</svg>
